<svg xmlns="http://www.w3.org/2000/svg" viewBox="0 0 900 520" font-family="Segoe UI, Noto Sans TC, sans-serif">
  <defs>
    <linearGradient id="g1" x1="0" y1="0" x2="1" y2="1"><stop offset="0%" stop-color="#1e3a8a"/><stop offset="100%" stop-color="#3b82f6"/></linearGradient>
    <linearGradient id="g2" x1="0" y1="0" x2="1" y2="1"><stop offset="0%" stop-color="#0f766e"/><stop offset="100%" stop-color="#14b8a6"/></linearGradient>
    <linearGradient id="g3" x1="0" y1="0" x2="1" y2="1"><stop offset="0%" stop-color="#7c3aed"/><stop offset="100%" stop-color="#a78bfa"/></linearGradient>
    <linearGradient id="g4" x1="0" y1="0" x2="1" y2="1"><stop offset="0%" stop-color="#b45309"/><stop offset="100%" stop-color="#f59e0b"/></linearGradient>
    
  </defs>

  
  <text x="450" y="35" text-anchor="middle" font-size="22" font-weight="bold" fill="#1e3a8a">Volt MX 平台架構</text>

  
  <rect x="30" y="55" width="840" height="60" rx="8" fill="#f1f5f9" stroke="#cbd5e1"/>
  <text x="450" y="75" text-anchor="middle" font-size="13" fill="#64748b" font-weight="600">多體驗前端 (Multi-Experience)</text>
  <text x="100" y="100" text-anchor="middle" font-size="12" fill="#475569">📱 手機</text>
  <text x="220" y="100" text-anchor="middle" font-size="12" fill="#475569">📟 平板</text>
  <text x="340" y="100" text-anchor="middle" font-size="12" fill="#475569">🖥️ 桌面</text>
  <text x="460" y="100" text-anchor="middle" font-size="12" fill="#475569">⌚ 穿戴裝置</text>
  <text x="580" y="100" text-anchor="middle" font-size="12" fill="#475569">🤖 Chat Bot</text>
  <text x="700" y="100" text-anchor="middle" font-size="12" fill="#475569">📺 Kiosk</text>
  <text x="810" y="100" text-anchor="middle" font-size="12" fill="#475569">🌐 PWA</text>

  
  <polygon points="450,120 440,130 460,130" fill="#94a3b8"/>

  
  <rect x="30" y="138" width="840" height="90" rx="10" fill="url(#g1)"/>
  <text x="60" y="165" font-size="18" font-weight="bold" fill="#fff">Iris</text>
  <text x="60" y="183" font-size="12" fill="#bfdbfe">視覺化設計與開發環境</text>
  <rect x="200" y="150" width="120" height="32" rx="6" fill="rgba(255,255,255,0.15)" stroke="rgba(255,255,255,0.3)"/>
  <text x="260" y="170" text-anchor="middle" font-size="11" fill="#fff">拖放式 UI 設計</text>
  <rect x="335" y="150" width="120" height="32" rx="6" fill="rgba(255,255,255,0.15)" stroke="rgba(255,255,255,0.3)"/>
  <text x="395" y="170" text-anchor="middle" font-size="11" fill="#fff">即時預覽</text>
  <rect x="470" y="150" width="120" height="32" rx="6" fill="rgba(255,255,255,0.15)" stroke="rgba(255,255,255,0.3)"/>
  <text x="530" y="170" text-anchor="middle" font-size="11" fill="#fff">跨平台編譯</text>
  <rect x="605" y="150" width="120" height="32" rx="6" fill="rgba(255,255,255,0.15)" stroke="rgba(255,255,255,0.3)"/>
  <text x="665" y="170" text-anchor="middle" font-size="11" fill="#fff">AI 輔助開發</text>
  <rect x="740" y="150" width="120" height="32" rx="6" fill="rgba(255,255,255,0.15)" stroke="rgba(255,255,255,0.3)"/>
  <text x="800" y="170" text-anchor="middle" font-size="11" fill="#fff">元件市集</text>

  <rect x="200" y="192" width="120" height="28" rx="6" fill="rgba(255,255,255,0.1)" stroke="rgba(255,255,255,0.2)"/>
  <text x="260" y="210" text-anchor="middle" font-size="10" fill="#dbeafe">減少 80% 程式碼</text>
  <rect x="335" y="192" width="120" height="28" rx="6" fill="rgba(255,255,255,0.1)" stroke="rgba(255,255,255,0.2)"/>
  <text x="395" y="210" text-anchor="middle" font-size="10" fill="#dbeafe">Figma 轉 UI</text>
  <rect x="470" y="192" width="120" height="28" rx="6" fill="rgba(255,255,255,0.1)" stroke="rgba(255,255,255,0.2)"/>
  <text x="530" y="210" text-anchor="middle" font-size="10" fill="#dbeafe">Native + Web</text>
  <rect x="605" y="192" width="255" height="28" rx="6" fill="rgba(255,255,255,0.1)" stroke="rgba(255,255,255,0.2)"/>
  <text x="733" y="210" text-anchor="middle" font-size="10" fill="#dbeafe">Volt IQ RAG 智慧輔助</text>

  
  <polygon points="450,233 440,243 460,243" fill="#94a3b8"/>

  
  <rect x="30" y="250" width="840" height="90" rx="10" fill="url(#g2)"/>
  <text x="60" y="277" font-size="18" font-weight="bold" fill="#fff">Foundry</text>
  <text x="60" y="295" font-size="12" fill="#99f6e4">後端服務與整合中介層</text>
  <rect x="200" y="262" width="105" height="32" rx="6" fill="rgba(255,255,255,0.15)" stroke="rgba(255,255,255,0.3)"/>
  <text x="253" y="282" text-anchor="middle" font-size="11" fill="#fff">身份驗證</text>
  <rect x="315" y="262" width="105" height="32" rx="6" fill="rgba(255,255,255,0.15)" stroke="rgba(255,255,255,0.3)"/>
  <text x="368" y="282" text-anchor="middle" font-size="11" fill="#fff">整合與工作流</text>
  <rect x="430" y="262" width="105" height="32" rx="6" fill="rgba(255,255,255,0.15)" stroke="rgba(255,255,255,0.3)"/>
  <text x="483" y="282" text-anchor="middle" font-size="11" fill="#fff">API 管理</text>
  <rect x="545" y="262" width="105" height="32" rx="6" fill="rgba(255,255,255,0.15)" stroke="rgba(255,255,255,0.3)"/>
  <text x="598" y="282" text-anchor="middle" font-size="11" fill="#fff">安全加密</text>
  <rect x="660" y="262" width="105" height="32" rx="6" fill="rgba(255,255,255,0.15)" stroke="rgba(255,255,255,0.3)"/>
  <text x="713" y="282" text-anchor="middle" font-size="11" fill="#fff">報告分析</text>
  <rect x="775" y="262" width="85" height="32" rx="6" fill="rgba(255,255,255,0.15)" stroke="rgba(255,255,255,0.3)"/>
  <text x="818" y="282" text-anchor="middle" font-size="11" fill="#fff">業務規則</text>

  <text x="450" y="325" text-anchor="middle" font-size="11" fill="#ccfbf1">預建轉接器 (Adapters) — 縮短上線時間 60% 以上</text>

  
  <polygon points="450,345 440,355 460,355" fill="#94a3b8"/>

  
  <rect x="30" y="360" width="410" height="40" rx="8" fill="url(#g3)"/>
  <text x="235" y="385" text-anchor="middle" font-size="13" font-weight="600" fill="#fff">DevOps 自動化測試 &amp; CI/CD</text>

  <rect x="460" y="360" width="410" height="40" rx="8" fill="url(#g4)"/>
  <text x="665" y="385" text-anchor="middle" font-size="13" font-weight="600" fill="#fff">雲端託管 (Cloud / On-Prem / Hybrid)</text>

  
  <polygon points="450,405 440,415 460,415" fill="#94a3b8"/>

  
  <rect x="30" y="422" width="840" height="55" rx="8" fill="#f8fafc" stroke="#e2e8f0"/>
  <text x="450" y="442" text-anchor="middle" font-size="13" fill="#64748b" font-weight="600">企業後端系統</text>
  <text x="110" y="465" text-anchor="middle" font-size="12" fill="#475569">HCL Domino</text>
  <text x="250" y="465" text-anchor="middle" font-size="12" fill="#475569">SAP ERP</text>
  <text x="370" y="465" text-anchor="middle" font-size="12" fill="#475569">Salesforce</text>
  <text x="490" y="465" text-anchor="middle" font-size="12" fill="#475569">REST / SOAP</text>
  <text x="620" y="465" text-anchor="middle" font-size="12" fill="#475569">資料庫</text>
  <text x="740" y="465" text-anchor="middle" font-size="12" fill="#475569">IoT 裝置</text>

  
  <rect x="880" y="138" width="16" height="202" rx="4" fill="#e0e7ff"/>
  <text x="888" y="250" text-anchor="middle" font-size="10" fill="#4338ca" letter-spacing="2">Marketplace</text>

  
  <text x="450" y="505" text-anchor="middle" font-size="11" fill="#94a3b8">資料來源：HCL Software — Volt MX Platform</text>
</svg>